<?xml version="1.0" encoding="UTF-8"?>
<!DOCTYPE svg PUBLIC "-//W3C//DTD SVG 1.1//EN" "http://www.w3.org/Graphics/SVG/1.1/DTD/svg11.dtd">
<svg xmlns="http://www.w3.org/2000/svg">
  <symbol id="award" viewBox="0 0 90 69">
    <path d="M13.777 10.333C13.313 3.705 17.929 2.158 21.934 0c-.281 5.157-2.438 10.009-8.157 10.333m62.723 0C76.941 3.668 72.334 2.051 68.161 0c.781 5.443 2.518 9.93 8.339 10.333m-66.349 5.076c3.971-2.428 2.808-10.162 0-13.052-2.109 2.999-3.949 10.632 0 13.052m70.156 0c3.579-2.655 2.163-10.537-.544-13.052-2.198 3.42-3.795 10.816.544 13.052M20.303 9.427c-4.421 1.682-9.104 3.102-9.064 9.245 6.249.266 8.281-4.65 9.064-9.245m58.735 9.245c.018-6.182-4.672-7.655-9.245-9.245 1.29 4.873 2.911 9.415 9.245 9.245M7.614 25.017c3.314-3.999.442-10.424-2.72-12.69-1.567 4.428-1.649 11.324 2.72 12.69m75.05 0c4.263-1.252 4.619-8.899 2.356-12.69-2.665 2.662-5.737 8.708-2.356 12.69M15.409 18.49c-3.586 2.271-7.942 5.313-6.527 11.421 5.081-.781 6.98-5.71 6.527-11.421m65.986 11.421c1.376-6.15-2.917-9.28-6.708-11.421.007 6.037 1.565 10.521 6.708 11.421M7.976 34.262c1.524-6.267-2.983-9.237-6.889-11.239.178 5.864 1.871 10.214 6.889 11.239m74.325 0c4.994-.867 6.932-5.757 6.708-11.239-3.715 2.106-8.279 5.024-6.708 11.239m-67.436-7.251c-2.651 2.638-6.436 7.418-3.807 12.508 4.559-.881 5.789-7.813 3.807-12.508m60.366 0c-1.627 5.036-.614 11.547 3.988 12.508 2.584-5.119-1.1-10.037-3.988-12.508m-64.898 14.14C9.961 35.48 5.372 34.026 0 33.356c1.756 4.171 4.174 8.628 10.333 7.795m69.612 0c4.39.857 6.869-1.799 8.52-4.17.811-1.166 1.838-2.602 1.45-3.625-5.116.805-9.654 2.189-9.97 7.795m-63.267-5.257c-2.448 2.82-5.535 8.705-2.357 12.871 4.42-1.068 4.699-9.142 2.357-12.871m59.278 12.871c3.126-4.179.175-10.257-2.538-12.871-2.006 4.049-1.906 11.724 2.538 12.871m-55.472 5.619c4.687-1.987 2.637-10.177.182-13.052-2.113 3.146-3.752 10.255-.182 13.052m49.127 0c3.842-2.502 2.204-10.198-.181-13.052-2.148 3.153-4.282 10.81.181 13.052m-56.922-6.345c-.662-5.078-5.47-6.977-11.239-6.344 2.301 3.387 5.186 7.891 11.239 6.344m64.899 0c6.077 1.517 9.055-2.965 11.239-6.526-6.078-.156-10.476 1.368-11.239 6.526M29.367 58.916c2.692-5.164-1.162-10.18-4.351-12.327-1.131 5.449-.059 11.272 4.351 12.327M65.08 46.589c-2.955 2.313-6.906 7.188-4.17 12.327 4.392-.916 5.672-7.258 4.17-12.327m-46.59 7.433c-1.075-4.415-6.895-5.77-12.146-4.351 1.649 2.932 7.118 7.041 12.146 4.351m53.297 0c3.56 1.975 6.759.464 9.064-1.269 1.197-.9 3.07-2.054 2.901-3.082-5.163-1.446-10.922 0-11.965 4.351m-30.818 7.432c-.137-5.906-4.629-7.456-9.789-8.339 1.548 4.376 3.863 8.944 9.789 8.339m14.865-2.538c1.401-1.538 3.125-3.736 2.901-5.801-4.947 1.036-9.417 2.548-9.427 8.52 3.099.291 5.009-1.054 6.526-2.719m-30.274 0c-1.664-4.478-8.989-4.256-12.871-1.813 2.625 2.501 9.185 5.177 12.871 1.813m39.157 0c3.691 3.318 10.453.77 12.871-1.994-4.176-2.138-11.137-2.502-12.871 1.994m-31.18 2.719c-.104-.661-3.146-1.94-4.533-1.994-3.765-.147-6.39 2.604-8.338 3.989 2.339.747 6.199 2.146 9.245 1.087.883-.307 3.773-2.144 3.626-3.082m27.554-1.994c-.88.054-4.296 1.202-4.351 2.176-.031.566 2.072 2.004 2.357 2.175 3.056 1.829 8.052.889 10.514-.544-2.088-1.264-4.788-4.033-8.52-3.807m-31.542 7.614c4.443 1.859 11.423 1.269 12.689-3.082-4.512-3.077-10.331.166-12.689 3.082m18.49-3.082c1.192 4.337 8.544 5.087 12.69 2.901-2.55-2.665-8.202-6.012-12.69-2.901m-2.99-3.59a2.114 2.114 0 1 0-.001 4.229 2.114 2.114 0 0 0 .001-4.229" fill-rule="evenodd" />
  </symbol>
  <symbol id="email" viewBox="0 0 32 32">
    <title>Mail</title>
    <path class="path1" d="M31.5.196q.589.429.482 1.143l-4.571 27.429q-.089.518-.571.804-.25.143-.554.143-.196 0-.429-.089l-8.089-3.304-4.321 5.268q-.321.411-.875.411-.232 0-.393-.071-.339-.125-.545-.42t-.205-.652v-6.232L26.858 5.715 7.769 22.233.715 19.34q-.661-.25-.714-.982-.036-.714.571-1.054L30.286.161Q30.554 0 30.857 0q.357 0 .643.196z" fill="currentColor" />
  </symbol>
  <symbol id="logo-facebook" viewBox="0 0 24 24">
    <title>Facebook</title>
    <path d="M12 2C6.5 2 2 6.5 2 12c0 5 3.7 9.1 8.4 9.9v-7H7.9V12h2.5V9.8c0-2.5 1.5-3.9 3.8-3.9 1.1 0 2.2.2 2.2.2v2.5h-1.3c-1.2 0-1.6.8-1.6 1.6V12h2.8l-.4 2.9h-2.3v7C18.3 21.1 22 17 22 12c0-5.5-4.5-10-10-10z" fill="currentColor" />
  </symbol>
  <symbol id="logo-facebook-alt" viewBox="0 0 256 256">
    <title>Facebook</title>
    <path d="M241.871 256.001c7.802 0 14.129-6.326 14.129-14.129V14.129C256 6.325 249.673 0 241.871 0H14.129C6.324 0 0 6.325 0 14.129v227.743c0 7.803 6.324 14.129 14.129 14.129h227.742zm-65.236 0v-99.137h33.277l4.982-38.635h-38.259V93.561c0-11.186 3.107-18.809 19.148-18.809l20.459-.009V40.188c-3.54-.471-15.684-1.523-29.812-1.523-29.498 0-49.692 18.005-49.692 51.071v28.493h-33.362v38.635h33.362v99.137h39.897z" fill="currentColor" fill-rule="evenodd" />
  </symbol>
  <symbol id="logo-instagram" viewBox="0 0 24 24">
    <title>Instagram</title>
    <path d="M12 4.622c2.403 0 2.688.01 3.637.052.877.04 1.354.187 1.67.31.42.163.72.358 1.036.673.315.315.51.615.673 1.035.123.317.27.794.31 1.67.043.95.052 1.235.052 3.638s-.01 2.688-.052 3.637c-.04.877-.187 1.354-.31 1.67-.163.42-.358.72-.673 1.036-.315.315-.615.51-1.035.673-.317.123-.794.27-1.67.31-.95.043-1.234.052-3.638.052s-2.688-.01-3.637-.052c-.877-.04-1.354-.187-1.67-.31-.42-.163-.72-.358-1.036-.673-.315-.315-.51-.615-.673-1.035-.123-.317-.27-.794-.31-1.67-.043-.95-.052-1.235-.052-3.638s.01-2.688.052-3.637c.04-.877.187-1.354.31-1.67.163-.42.358-.72.673-1.036.315-.315.615-.51 1.035-.673.317-.123.794-.27 1.67-.31.95-.043 1.235-.052 3.638-.052M12 3c-2.444 0-2.75.01-3.71.054s-1.613.196-2.185.418c-.592.23-1.094.538-1.594 1.04-.5.5-.807 1-1.037 1.593-.223.572-.375 1.226-.42 2.184C3.01 9.25 3 9.555 3 12s.01 2.75.054 3.71.196 1.613.418 2.186c.23.592.538 1.094 1.038 1.594s1.002.808 1.594 1.038c.572.222 1.227.375 2.185.418.96.044 1.266.054 3.71.054s2.75-.01 3.71-.054 1.613-.196 2.186-.418c.592-.23 1.094-.538 1.594-1.038s.808-1.002 1.038-1.594c.222-.572.375-1.227.418-2.185.044-.96.054-1.266.054-3.71s-.01-2.75-.054-3.71-.196-1.613-.418-2.186c-.23-.592-.538-1.094-1.038-1.594s-1.002-.808-1.594-1.038c-.572-.222-1.227-.375-2.185-.418C14.75 3.01 14.445 3 12 3zm0 4.378c-2.552 0-4.622 2.07-4.622 4.622s2.07 4.622 4.622 4.622 4.622-2.07 4.622-4.622S14.552 7.378 12 7.378zM12 15c-1.657 0-3-1.343-3-3s1.343-3 3-3 3 1.343 3 3-1.343 3-3 3zm4.804-8.884c-.596 0-1.08.484-1.08 1.08s.484 1.08 1.08 1.08c.596 0 1.08-.484 1.08-1.08s-.483-1.08-1.08-1.08z" fill="currentColor" />
  </symbol>
  <symbol id="logo-instagram-alt" viewBox="0 0 256 256">
    <title>Instagram</title>
    <path d="M128 23.064c34.177 0 38.225.13 51.722.745 12.48.57 19.258 2.655 23.769 4.408 5.974 2.322 10.238 5.096 14.717 9.575 4.48 4.479 7.253 8.743 9.575 14.717 1.753 4.511 3.838 11.289 4.408 23.768.615 13.498.745 17.546.745 51.723 0 34.178-.13 38.226-.745 51.723-.57 12.48-2.655 19.257-4.408 23.768-2.322 5.974-5.096 10.239-9.575 14.718-4.479 4.479-8.743 7.253-14.717 9.574-4.511 1.753-11.289 3.839-23.769 4.408-13.495.616-17.543.746-51.722.746-34.18 0-38.228-.13-51.723-.746-12.48-.57-19.257-2.655-23.768-4.408-5.974-2.321-10.239-5.095-14.718-9.574-4.479-4.48-7.253-8.744-9.574-14.718-1.753-4.51-3.839-11.288-4.408-23.768-.616-13.497-.746-17.545-.746-51.723 0-34.177.13-38.225.746-51.722.57-12.48 2.655-19.258 4.408-23.769 2.321-5.974 5.095-10.238 9.574-14.717 4.48-4.48 8.744-7.253 14.718-9.575 4.51-1.753 11.288-3.838 23.768-4.408 13.497-.615 17.545-.745 51.723-.745M128 0C93.237 0 88.878.147 75.226.77c-13.625.622-22.93 2.786-31.071 5.95-8.418 3.271-15.556 7.648-22.672 14.764C14.367 28.6 9.991 35.738 6.72 44.155 3.555 52.297 1.392 61.602.77 75.226.147 88.878 0 93.237 0 128c0 34.763.147 39.122.77 52.774.622 13.625 2.785 22.93 5.95 31.071 3.27 8.417 7.647 15.556 14.763 22.672 7.116 7.116 14.254 11.492 22.672 14.763 8.142 3.165 17.446 5.328 31.07 5.95 13.653.623 18.012.77 52.775.77s39.122-.147 52.774-.77c13.624-.622 22.929-2.785 31.07-5.95 8.418-3.27 15.556-7.647 22.672-14.763 7.116-7.116 11.493-14.254 14.764-22.672 3.164-8.142 5.328-17.446 5.95-31.07.623-13.653.77-18.012.77-52.775s-.147-39.122-.77-52.774c-.622-13.624-2.786-22.929-5.95-31.07-3.271-8.418-7.648-15.556-14.764-22.672C227.4 14.368 220.262 9.99 211.845 6.72c-8.142-3.164-17.447-5.328-31.071-5.95C167.122.147 162.763 0 128 0zm0 62.27c-36.302 0-65.73 29.43-65.73 65.73 0 36.302 29.428 65.73 65.73 65.73 36.301 0 65.73-29.428 65.73-65.73 0-36.301-29.429-65.73-65.73-65.73zm0 108.397c-23.564 0-42.667-19.103-42.667-42.667S104.436 85.333 128 85.333s42.667 19.103 42.667 42.667-19.103 42.667-42.667 42.667zm83.686-110.994c0 8.484-6.876 15.36-15.36 15.36-8.483 0-15.36-6.876-15.36-15.36 0-8.483 6.877-15.36 15.36-15.36 8.484 0 15.36 6.877 15.36 15.36z" fill="currentColor" />
  </symbol>
  <symbol id="logo-youtube-alt" viewBox="0 0 1022 719">
    <title>Youtube</title>
    <path d="M1011.25 155.562s-9.98-70.389-40.608-101.386C931.8 13.493 888.262 13.291 868.296 10.91 725.359.577 510.946.577 510.946.577h-.444s-214.408 0-357.35 10.333c-19.967 2.381-63.489 2.583-102.345 43.266-30.626 30.997-40.592 101.386-40.592 101.386S0 238.222 0 320.881v77.493c0 82.658 10.215 165.317 10.215 165.317s9.966 70.39 40.592 101.387c38.856 40.684 89.896 39.397 112.629 43.661C245.153 716.575 510.725 719 510.725 719s214.634-.323 357.571-10.655c19.966-2.382 63.504-2.583 102.346-43.267 30.628-30.997 40.608-101.387 40.608-101.387s10.2-82.659 10.2-165.317v-77.493c0-82.659-10.2-165.319-10.2-165.319zM405.272 492.281l-.047-287 276 144-275.953 143z" fill="currentColor" />
  </symbol>
  <symbol id="logo-youtube" viewBox="0 0 24 24">
    <title>Youtube</title>
    <path d="M21.8 8s-.195-1.377-.795-1.984c-.76-.797-1.613-.8-2.004-.847-2.798-.203-6.996-.203-6.996-.203h-.01s-4.197 0-6.996.202c-.39.046-1.242.05-2.003.846C2.395 6.623 2.2 8 2.2 8S2 9.62 2 11.24v1.517c0 1.618.2 3.237.2 3.237s.195 1.378.795 1.985c.76.797 1.76.77 2.205.855 1.6.153 6.8.2 6.8.2s4.203-.005 7-.208c.392-.047 1.244-.05 2.005-.847.6-.607.795-1.985.795-1.985s.2-1.618.2-3.237v-1.517C22 9.62 21.8 8 21.8 8zM9.935 14.595v-5.62l5.403 2.82-5.403 2.8z" fill="currentColor" />
  </symbol>
  <symbol id="logo-linkedin" viewBox="0 0 24 24">
    <title>Linkedin</title>
    <path d="M19.7 3H4.3C3.582 3 3 3.582 3 4.3v15.4c0 .718.582 1.3 1.3 1.3h15.4c.718 0 1.3-.582 1.3-1.3V4.3c0-.718-.582-1.3-1.3-1.3zM8.34 18.338H5.666v-8.59H8.34v8.59zM7.003 8.574c-.857 0-1.55-.694-1.55-1.548 0-.855.692-1.548 1.55-1.548.854 0 1.547.694 1.547 1.548 0 .855-.692 1.548-1.546 1.548zm11.335 9.764h-2.67V14.16c0-.995-.017-2.277-1.387-2.277-1.39 0-1.6 1.086-1.6 2.206v4.248h-2.668v-8.59h2.56v1.174h.036c.357-.675 1.228-1.387 2.527-1.387 2.703 0 3.203 1.78 3.203 4.092v4.71z" fill="currentColor" />
  </symbol>
</svg>
